<svg xmlns="http://www.w3.org/2000/svg" width="2000" height="2000" viewBox="0 0 2000 2000" version="1.1">
	<path d="M 962.840 53.746 L 951.179 54.062 950.580 58.781 C 950.251 61.376, 947.967 84.650, 945.505 110.500 C 943.044 136.350, 940.781 159.339, 940.478 161.587 L 939.926 165.675 925.713 166.906 C 906.384 168.581, 882.524 171.561, 864.593 174.541 C 856.393 175.904, 849.571 176.902, 849.431 176.759 C 849.291 176.617, 840.516 153.325, 829.931 125 C 819.347 96.675, 810.419 73.191, 810.093 72.814 C 808.773 71.287, 752.223 85.289, 722.744 94.441 C 714.668 96.948, 707.759 99, 707.392 99 C 706.406 99, 707.238 104.653, 716.321 159.641 L 724.604 209.782 709.124 215.496 C 690.501 222.370, 666.566 232.273, 652.217 239.041 C 646.436 241.769, 641.125 244, 640.416 244 C 639.706 244, 625.082 224.312, 607.916 200.250 C 590.751 176.188, 576.133 155.876, 575.432 155.114 C 574.360 153.949, 571.268 155.269, 556.042 163.396 C 522.671 181.206, 481.508 206.317, 482.329 208.364 C 482.580 208.989, 492.969 231.952, 505.416 259.393 C 517.863 286.835, 527.924 309.360, 527.773 309.450 C 527.623 309.540, 521.346 313.971, 513.825 319.296 C 495.910 331.981, 473.724 349.279, 456.835 363.731 C 455.342 365.009, 450.725 361.497, 411.954 329.589 L 368.738 294.023 359.672 302.261 C 347.400 313.414, 315.818 344.962, 303.225 358.648 L 292.967 369.796 328.528 413.020 C 360.045 451.329, 363.931 456.429, 362.702 457.872 C 349.551 473.304, 328.746 500.219, 316.997 517 C 312.954 522.775, 309.332 527.871, 308.948 528.325 C 308.564 528.779, 285.806 518.943, 258.375 506.467 C 230.944 493.992, 207.995 483.582, 207.377 483.334 C 205.437 482.556, 177.311 529.375, 160.615 561.175 L 152.911 575.850 196.705 607.079 C 220.792 624.254, 241.261 638.959, 242.192 639.756 C 243.771 641.108, 243.713 641.583, 241.325 646.853 C 233.028 665.161, 222.342 690.844, 216.506 706.500 C 212.816 716.400, 209.505 724.794, 209.149 725.153 C 208.792 725.512, 184.650 721.799, 155.500 716.903 C 126.350 712.006, 101.625 708.112, 100.555 708.250 C 98.428 708.523, 98.542 708.208, 90.006 737.622 C 82.881 762.176, 71.184 810.754, 72.224 811.471 C 72.376 811.576, 95.675 820.322, 124 830.907 C 152.325 841.492, 175.781 850.455, 176.125 850.826 C 176.469 851.197, 175.898 856.450, 174.856 862.500 C 172.217 877.833, 168.347 908.742, 166.905 926 C 166.239 933.975, 165.592 940.634, 165.467 940.797 C 165.342 940.960, 140.382 943.527, 110 946.500 C 79.618 949.473, 54.507 952.160, 54.197 952.469 C 53.305 953.362, 53.431 1035.260, 54.344 1048.023 L 55.169 1059.546 110.334 1064.860 C 140.676 1067.782, 165.774 1070.472, 166.108 1070.837 C 166.442 1071.202, 167.481 1079.150, 168.416 1088.500 C 170.195 1106.279, 173.729 1131.542, 176.902 1149.146 C 177.928 1154.841, 178.674 1159.608, 178.560 1159.740 C 178.446 1159.872, 155.064 1168.719, 126.600 1179.400 C 98.136 1190.081, 74.679 1198.987, 74.474 1199.193 C 74.020 1199.647, 82.769 1236.786, 86.443 1250 C 92.336 1271.198, 102.393 1303, 103.203 1303 C 103.679 1303, 128.428 1298.935, 158.200 1293.967 C 187.973 1288.998, 212.663 1285.286, 213.066 1285.717 C 213.470 1286.147, 216.381 1293.250, 219.536 1301.500 C 225.821 1317.934, 235.086 1339.693, 242.970 1356.535 C 245.758 1362.489, 247.692 1367.664, 247.269 1368.033 C 246.846 1368.402, 226.700 1382.787, 202.500 1400 C 178.300 1417.213, 158.179 1431.572, 157.787 1431.911 C 156.332 1433.166, 183.466 1481.053, 202.740 1511.244 C 210.538 1523.461, 212.439 1525.838, 213.826 1525.110 C 220.637 1521.533, 313.338 1479.954, 313.966 1480.194 C 314.405 1480.363, 321.510 1489.500, 329.755 1500.500 C 337.999 1511.500, 350.186 1527.014, 356.836 1534.975 C 368.713 1549.195, 368.894 1549.486, 367.105 1551.475 C 365.521 1553.235, 301.113 1631.682, 298.863 1634.591 C 297.234 1636.697, 347.408 1687.568, 372 1708.743 L 375.500 1711.757 418.494 1676.377 C 442.141 1656.917, 461.802 1641.110, 462.186 1641.248 C 462.569 1641.387, 470.703 1647.715, 480.260 1655.312 C 494.447 1666.588, 518.610 1684.474, 529.823 1692 L 532.058 1693.500 509.524 1742.978 C 497.130 1770.192, 486.770 1793.148, 486.502 1793.993 C 485.705 1796.504, 526.483 1821.091, 564.347 1840.930 C 577.572 1847.859, 580.403 1849.008, 581.456 1847.867 C 582.337 1846.912, 643.898 1760.751, 645.461 1758.285 C 645.536 1758.167, 654.187 1761.836, 664.687 1766.440 C 683.168 1774.543, 717.642 1788.137, 723.250 1789.532 C 725.062 1789.983, 726 1790.874, 726 1792.144 C 726 1793.981, 709.550 1894.090, 708.488 1898.716 C 708.016 1900.771, 708.911 1901.225, 720.739 1904.946 C 750.405 1914.278, 810.019 1928.974, 813.221 1927.745 C 813.954 1927.464, 823.258 1904.007, 833.898 1875.617 C 844.538 1847.228, 853.598 1824, 854.033 1824 C 854.467 1824, 861.950 1825.103, 870.661 1826.452 C 887.711 1829.091, 916.102 1832.494, 930.250 1833.595 C 935.063 1833.969, 939.001 1834.326, 939.003 1834.388 C 939.131 1839.537, 950.049 1945.383, 950.498 1945.832 C 951.484 1946.817, 1045.394 1946.399, 1052.989 1945.375 L 1059.479 1944.500 1064.672 1891.500 C 1067.528 1862.350, 1070.007 1837.383, 1070.182 1836.018 C 1070.496 1833.563, 1070.691 1833.516, 1087.500 1831.807 C 1105.387 1829.989, 1134.362 1825.977, 1146.967 1823.573 C 1151.073 1822.790, 1154.696 1822.312, 1155.017 1822.511 C 1155.339 1822.709, 1164.354 1846.276, 1175.051 1874.882 C 1192.541 1921.653, 1194.701 1926.849, 1196.500 1926.472 C 1221.731 1921.179, 1255.048 1912.466, 1283.250 1903.788 C 1296.546 1899.696, 1300 1898.273, 1300 1896.889 C 1300 1895.929, 1296.174 1871.824, 1291.498 1843.322 C 1286.822 1814.820, 1282.884 1790.666, 1282.748 1789.647 C 1282.573 1788.343, 1283.537 1787.400, 1286 1786.462 C 1305.508 1779.040, 1330.577 1768.782, 1344.398 1762.565 C 1353.693 1758.384, 1361.376 1755.084, 1361.472 1755.232 C 1362.616 1756.979, 1425.400 1844.696, 1425.887 1845.226 C 1427.558 1847.049, 1511.735 1798.895, 1519.831 1791.485 C 1520.922 1790.486, 1516.995 1781.097, 1498.059 1739.435 C 1481.129 1702.185, 1475.296 1688.410, 1476.228 1687.876 C 1480.354 1685.515, 1508.869 1664.124, 1522.367 1653.265 C 1531.094 1646.244, 1539.268 1639.703, 1540.530 1638.730 C 1542.824 1636.962, 1542.869 1636.995, 1585.455 1672.045 C 1608.901 1691.342, 1628.707 1706.989, 1629.468 1706.815 C 1633.899 1705.806, 1706.999 1632.648, 1706.266 1629.956 C 1706.138 1629.484, 1690.238 1609.912, 1670.933 1586.462 L 1635.834 1543.825 1640.018 1538.864 C 1649.762 1527.308, 1665.942 1506.575, 1676.632 1491.946 L 1688.105 1476.246 1737.303 1498.653 C 1764.361 1510.977, 1787.400 1521.289, 1788.500 1521.569 C 1789.752 1521.887, 1790.920 1521.408, 1791.621 1520.289 C 1792.238 1519.305, 1797.115 1511.565, 1802.458 1503.088 C 1814.204 1484.456, 1828.288 1460.099, 1838.084 1441.478 C 1845.034 1428.266, 1845.249 1427.655, 1843.413 1426.294 C 1842.361 1425.515, 1822.220 1411.105, 1798.654 1394.271 C 1775.089 1377.438, 1755.614 1363.157, 1755.376 1362.536 C 1755.137 1361.915, 1757.702 1355.353, 1761.074 1347.953 C 1767.862 1333.062, 1779 1306.261, 1784.017 1292.750 C 1786.540 1285.953, 1787.690 1284, 1789.169 1284 C 1790.982 1284, 1891.111 1300.456, 1895.695 1301.507 C 1897.715 1301.970, 1898.210 1301.028, 1901.877 1289.755 C 1909.637 1265.896, 1918.934 1231.493, 1924.841 1204.779 L 1926.770 1196.058 1921.635 1194.129 C 1918.811 1193.068, 1895.385 1184.278, 1869.579 1174.596 C 1843.772 1164.913, 1822.514 1156.847, 1822.338 1156.671 C 1822.162 1156.496, 1823.333 1148.510, 1824.940 1138.926 C 1828.181 1119.597, 1831.515 1094.193, 1832.588 1080.663 C 1832.978 1075.748, 1833.780 1071.645, 1834.395 1071.417 C 1835.003 1071.192, 1860.025 1068.635, 1890 1065.735 L 1944.500 1060.463 1945.345 1053.481 C 1946.275 1045.796, 1946.797 952.464, 1945.915 951.582 C 1945.612 951.279, 1922.220 948.786, 1893.932 946.042 C 1865.645 943.298, 1840.670 940.801, 1838.434 940.493 L 1834.367 939.932 1832.629 920.384 C 1831.673 909.633, 1829.527 891.536, 1827.860 880.168 C 1826.193 868.801, 1824.755 858.204, 1824.664 856.621 L 1824.500 853.742 1876.500 834.239 C 1905.100 823.512, 1928.596 814.662, 1928.713 814.572 C 1929.164 814.224, 1920.980 778.580, 1916.182 760 C 1911.810 743.068, 1902.279 710.027, 1901.535 709.222 C 1901.394 709.070, 1876.635 713.056, 1846.514 718.080 C 1801.844 725.531, 1791.597 726.965, 1790.915 725.863 C 1790.456 725.120, 1788.670 720.459, 1786.945 715.506 C 1782.251 702.019, 1771.462 675.176, 1764.853 660.537 C 1761.634 653.408, 1759 647.073, 1759 646.461 C 1759 645.848, 1779.028 631.047, 1803.506 613.569 C 1827.984 596.091, 1848.267 581.377, 1848.580 580.871 C 1849.777 578.934, 1825.871 535.040, 1806.033 502.749 L 1795.851 486.176 1790.676 488.489 C 1787.829 489.761, 1765.077 500.072, 1740.115 511.401 C 1715.154 522.731, 1694.454 531.989, 1694.115 531.976 C 1693.777 531.963, 1691.475 528.961, 1689 525.304 C 1681.505 514.231, 1664.376 491.338, 1652.296 476.247 C 1644.975 467.103, 1641.162 461.548, 1641.656 460.748 C 1642.364 459.602, 1664.081 433.113, 1698.114 391.884 L 1711.831 375.268 1698.698 360.884 C 1684.350 345.170, 1653.419 314.108, 1642.397 304.346 L 1635.450 298.193 1595.975 330.679 C 1574.264 348.547, 1554.850 364.486, 1552.834 366.100 L 1549.168 369.035 1541.182 362.157 C 1529.983 352.511, 1508.078 335.242, 1492.605 323.860 C 1485.090 318.332, 1479.635 313.640, 1479.816 312.860 C 1479.990 312.112, 1490.051 289.675, 1502.174 263 C 1514.297 236.325, 1524.436 213.951, 1524.704 213.279 C 1525.728 210.716, 1482.875 184.409, 1439.838 161.180 L 1432.176 157.045 1399.929 202.273 C 1382.193 227.148, 1367.610 247.605, 1367.523 247.734 C 1367.436 247.863, 1358.620 243.986, 1347.932 239.118 C 1329.898 230.905, 1308.755 222.112, 1291.194 215.524 C 1284.299 212.937, 1283.919 212.634, 1284.432 210.141 C 1285.593 204.505, 1302 104.989, 1302 103.589 C 1302 102.046, 1288.310 97.391, 1259.163 89.022 C 1246.725 85.450, 1210.298 76.309, 1201.500 74.551 L 1198.500 73.952 1179.007 125.976 C 1164.973 163.430, 1159.087 178, 1157.988 178 C 1157.149 178, 1148.596 176.681, 1138.981 175.069 C 1118.904 171.703, 1093.641 168.404, 1080.338 167.410 C 1075.298 167.034, 1070.699 166.432, 1070.117 166.072 C 1069.507 165.695, 1066.836 142.464, 1063.803 111.151 C 1060.912 81.304, 1058.264 56.427, 1057.919 55.868 C 1056.594 53.725, 1005.625 52.587, 962.840 53.746 M 977.223 217.026 C 962.221 217.408, 949.691 217.976, 949.378 218.289 C 948.768 218.899, 950.828 307.161, 951.467 307.800 C 951.677 308.010, 967.070 307.803, 985.674 307.341 L 1019.500 306.500 1019.794 298.628 L 1020.089 290.756 995.164 291.165 L 970.240 291.574 969.620 285.640 C 969.279 282.377, 969 277.073, 969 273.853 L 969 268 985.353 268 C 994.348 268, 1004.490 267.709, 1007.893 267.353 L 1014.079 266.707 1013.789 259.103 L 1013.500 251.500 991.250 251.881 L 969 252.263 969 248.778 C 969 246.861, 968.716 242.575, 968.369 239.253 L 967.737 233.212 991.786 232.856 C 1005.012 232.660, 1015.992 232.275, 1016.184 232 C 1016.376 231.725, 1016.378 228.012, 1016.188 223.750 L 1015.842 216 1010.171 216.166 C 1007.052 216.257, 992.225 216.645, 977.223 217.026 M 884.500 224.925 C 876.919 226.418, 876.514 226.631, 876.763 229 C 876.908 230.375, 879.063 242.700, 881.551 256.389 C 884.039 270.078, 885.945 281.632, 885.787 282.064 C 885.629 282.497, 876.084 272.309, 864.576 259.423 C 853.068 246.538, 842.908 235.321, 841.998 234.498 C 840.528 233.168, 839.377 233.180, 831.672 234.609 C 826.902 235.494, 823 236.557, 823 236.972 C 823 238.853, 838.927 324.261, 839.359 324.692 C 839.877 325.210, 855.052 322.281, 855.818 321.515 C 856.242 321.092, 847.444 270.281, 846.379 267 C 845.762 265.100, 844.147 263.384, 868.494 290.500 C 879.358 302.600, 888.846 313.138, 889.577 313.918 C 890.703 315.118, 892.191 315.145, 899.267 314.092 C 903.865 313.408, 908.092 312.545, 908.659 312.174 C 909.625 311.543, 894.248 224.699, 893 223.736 C 892.725 223.524, 888.900 224.059, 884.500 224.925 M 1090.286 224.451 C 1065.369 232.238, 1052.595 266.304, 1064.806 292.399 C 1069.959 303.410, 1079.594 310.944, 1093.131 314.547 C 1099.522 316.248, 1113.798 316.433, 1121.201 314.910 C 1126.563 313.806, 1140 308.219, 1140 307.092 C 1140 306.755, 1141.110 298.632, 1142.466 289.039 C 1143.822 279.447, 1144.835 271.521, 1144.716 271.425 C 1144.411 271.181, 1107.745 265.989, 1106.365 265.995 C 1105.731 265.998, 1104.926 268.538, 1104.541 271.750 C 1104.162 274.913, 1103.628 278.447, 1103.354 279.603 C 1102.888 281.574, 1103.508 281.795, 1113.176 283.103 L 1123.494 284.500 1123.149 288.499 C 1122.959 290.698, 1122.403 293.247, 1121.913 294.162 C 1119.553 298.573, 1103.038 301.010, 1094.810 298.162 C 1089.894 296.460, 1083.521 289.931, 1081.430 284.455 C 1078.977 278.034, 1079.813 261.510, 1082.956 254.273 C 1085.685 247.991, 1092.349 241.552, 1097.645 240.081 C 1109.652 236.748, 1121.822 241.730, 1125.556 251.507 L 1127.272 256 1136.764 256 L 1146.256 256 1145.583 251.792 C 1142.682 233.650, 1126.863 222.889, 1103.356 223.067 C 1098.485 223.104, 1092.604 223.726, 1090.286 224.451 M 1202.688 243.709 C 1201.605 245.491, 1176.052 328.386, 1176.460 328.793 C 1177.086 329.419, 1239.241 348.942, 1240.708 348.974 C 1242.351 349.009, 1246.516 334.937, 1245.118 334.073 C 1244.540 333.716, 1234.040 330.322, 1221.784 326.531 C 1209.528 322.740, 1199.343 319.525, 1199.151 319.387 C 1198.679 319.047, 1205 298.672, 1205.837 297.839 C 1206.202 297.475, 1215.709 300.063, 1226.964 303.589 C 1238.219 307.115, 1247.693 310, 1248.017 310 C 1248.863 310, 1253.275 295.942, 1252.632 295.298 C 1252.336 295.003, 1243.020 291.912, 1231.929 288.429 C 1220.838 284.946, 1211.533 281.867, 1211.252 281.585 C 1210.560 280.893, 1215.877 263.996, 1216.782 264.014 C 1217.177 264.022, 1227.400 267.149, 1239.500 270.963 C 1251.600 274.777, 1261.797 277.583, 1262.159 277.198 C 1263.364 275.922, 1266.824 263.511, 1266.156 262.860 C 1265.669 262.385, 1218.270 247.349, 1204.834 243.407 C 1203.918 243.139, 1202.952 243.274, 1202.688 243.709 M 698.751 276.214 L 688.002 281.293 680.446 304.896 C 671.208 333.755, 672.020 331.364, 671.613 330.893 C 671.426 330.677, 667.779 322.962, 663.509 313.750 C 659.240 304.538, 655.241 297.027, 654.623 297.059 C 654.005 297.092, 650.075 298.779, 645.888 300.809 L 638.276 304.500 657.018 345 C 667.327 367.275, 676.152 385.500, 676.630 385.500 C 678.181 385.500, 693 378.660, 693 377.944 C 693 377.562, 690.501 371.932, 687.447 365.432 L 681.894 353.614 685.113 344.557 C 686.884 339.576, 688.460 335.335, 688.616 335.133 C 688.773 334.931, 697.755 340.931, 708.577 348.465 L 728.253 362.164 738.685 357.392 C 744.423 354.767, 749.280 352.356, 749.479 352.034 C 749.678 351.711, 743.465 347.433, 735.671 342.527 C 727.877 337.620, 715.558 329.849, 708.296 325.258 L 695.092 316.911 702.449 295.705 C 706.496 284.042, 710.123 273.712, 710.510 272.750 C 711.493 270.306, 710.855 270.494, 698.751 276.214 M 1296.945 323.109 C 1285.912 345.170, 1277.024 363.342, 1277.193 363.493 C 1277.362 363.644, 1281.129 365.583, 1285.566 367.802 L 1293.631 371.837 1301.566 355.833 C 1305.929 347.030, 1309.822 339.625, 1310.216 339.376 C 1311.320 338.679, 1318.232 342.518, 1320.769 345.238 C 1323.431 348.090, 1325.058 355.357, 1327.570 375.604 L 1329.319 389.707 1338.673 394.354 C 1343.817 396.909, 1348.380 399, 1348.812 399 C 1349.693 399, 1349.645 398.254, 1347.459 378.127 C 1346.107 365.672, 1345.035 361.077, 1341.566 352.868 C 1340.956 351.423, 1341.424 351.337, 1345.640 352.125 C 1363.127 355.392, 1378.246 338.700, 1373.965 320.853 C 1371.772 311.714, 1366.284 307.365, 1340.356 294.224 C 1328.177 288.051, 1317.940 283, 1317.608 283 C 1317.276 283, 1307.978 301.049, 1296.945 323.109 M 1321.716 315.533 L 1316.980 325.066 1328.326 330.606 C 1342.702 337.626, 1346.551 338.266, 1350.920 334.363 C 1355.512 330.259, 1356.182 324.558, 1352.575 320.272 C 1350.301 317.569, 1329.817 306, 1327.306 306 C 1326.836 306, 1324.320 310.290, 1321.716 315.533 M 579 338.603 C 573.775 342.227, 568.917 345.748, 568.205 346.426 C 567.153 347.430, 568.683 352.514, 576.375 373.580 C 581.581 387.836, 586.350 400.828, 586.972 402.452 C 588.047 405.256, 588.014 405.323, 586.302 403.794 C 585.311 402.908, 574.643 393.829, 562.596 383.619 L 540.692 365.056 536.096 368.364 C 533.568 370.183, 528.458 373.813, 524.741 376.430 L 517.982 381.188 524.345 390.344 C 527.845 395.380, 539.139 411.650, 549.444 426.500 C 559.749 441.350, 568.551 453.888, 569.003 454.363 C 569.455 454.837, 572.902 453.065, 576.663 450.425 C 580.423 447.785, 583.634 445.538, 583.797 445.432 C 583.960 445.326, 575.751 433.236, 565.555 418.566 C 555.358 403.895, 547.575 392.236, 548.258 392.657 C 548.941 393.078, 560.245 402.804, 573.377 414.270 C 587.857 426.912, 597.802 434.906, 598.647 434.582 C 601.963 433.309, 612 425.808, 612 424.602 C 612 423.874, 607.047 410.094, 600.992 393.980 C 594.938 377.866, 590.159 364.507, 590.373 364.294 C 590.586 364.080, 598.744 375.429, 608.500 389.514 C 621.262 407.938, 626.655 414.963, 627.722 414.553 C 630.304 413.563, 641.069 405.699, 640.778 405.016 C 639.619 402.290, 590.279 332.090, 589.500 332.057 C 588.950 332.034, 584.225 334.980, 579 338.603 M 1401.582 381.119 C 1387.973 401.535, 1377.212 418.576, 1377.669 418.989 C 1380.712 421.737, 1392.553 428.834, 1393.094 428.234 C 1394.920 426.210, 1442 354.899, 1442 354.157 C 1442 353.213, 1428.552 344, 1427.175 344 C 1426.708 344, 1415.191 360.704, 1401.582 381.119 M 964.712 363.103 C 940.116 364.445, 899.384 369.148, 897.891 370.819 C 897.556 371.193, 893.281 381.438, 888.391 393.585 L 879.500 415.670 870.500 417.466 C 857.568 420.046, 824.947 429.107, 807.735 434.899 C 784.026 442.878, 758.313 453.574, 733.895 465.616 L 711.142 476.837 689.889 465.487 C 669.875 454.799, 668.486 454.215, 666.068 455.475 C 664.655 456.212, 655.400 462.170, 645.500 468.715 C 598.856 499.557, 556.512 536.075, 519.814 577.107 L 513.128 584.583 520.648 607.798 L 528.169 631.013 517.215 645.756 C 489.142 683.542, 464.857 725.465, 446.981 767 C 443.548 774.975, 440.569 781.693, 440.359 781.928 C 440.149 782.163, 429.338 784.638, 416.333 787.428 L 392.689 792.500 391.251 796.500 C 376.269 838.178, 363.650 897.276, 359.007 947.500 C 357.376 965.141, 356.095 1003.327, 357.092 1004.573 C 357.564 1005.163, 366.938 1011.238, 377.921 1018.073 L 397.892 1030.500 398.412 1036.500 C 398.698 1039.800, 399.417 1048.800, 400.010 1056.500 C 402.852 1093.393, 409.988 1132.922, 420.499 1170 C 422.916 1178.525, 425.770 1188.022, 426.843 1191.104 L 428.792 1196.709 413.914 1215.604 C 405.732 1225.997, 399.029 1234.998, 399.018 1235.606 C 398.977 1238.073, 411.735 1267.760, 421.020 1286.801 C 440.975 1327.725, 462.552 1362.727, 488.914 1396.941 C 494.186 1403.784, 498.804 1409.832, 499.177 1410.382 C 499.614 1411.028, 508.309 1410.211, 523.807 1408.068 L 547.761 1404.756 571.130 1428.219 C 604.617 1461.841, 631.642 1484.200, 667.250 1507.745 L 685 1519.482 685.138 1527.491 C 685.214 1531.896, 685.552 1542.902, 685.888 1551.949 L 686.500 1568.398 708.500 1579.520 C 759.829 1605.469, 810.232 1623.352, 866.098 1635.434 L 877.071 1637.808 893.249 1619.784 L 909.427 1601.760 914.964 1602.350 C 918.009 1602.675, 926.350 1603.611, 933.500 1604.430 C 981.009 1609.874, 1032.038 1609.180, 1084.119 1602.380 L 1088.739 1601.777 1105.092 1619.919 C 1120.699 1637.233, 1121.584 1638.033, 1124.473 1637.449 C 1172.634 1627.711, 1217.002 1613.708, 1260.500 1594.517 C 1273.992 1588.565, 1307.456 1571.898, 1310.257 1569.736 C 1311.610 1568.692, 1311.967 1564.757, 1312.561 1544.388 L 1313.263 1520.276 1316.381 1518.486 C 1323.101 1514.627, 1349.730 1496.522, 1359.350 1489.270 C 1387.768 1467.848, 1408.555 1449.487, 1433.743 1423.560 L 1451.986 1404.782 1475.896 1408.199 L 1499.806 1411.617 1502.497 1408.244 C 1540.609 1360.480, 1573.507 1304.684, 1595.664 1250.229 L 1601.069 1236.948 1586.745 1218.724 C 1578.868 1208.701, 1572.129 1200.023, 1571.770 1199.441 C 1571.411 1198.858, 1572.898 1192.783, 1575.074 1185.941 C 1580.871 1167.714, 1588.618 1136.140, 1592.480 1115 C 1597.525 1087.380, 1601.902 1047.070, 1602.035 1027 L 1602.078 1020.500 1622.841 1007.632 L 1643.605 994.764 1643.283 985.632 C 1641.091 923.505, 1631.567 867.513, 1613.450 810.250 C 1610.971 802.412, 1608.794 796, 1608.613 796 C 1607.702 796, 1561.665 785.999, 1561.413 785.746 C 1561.250 785.584, 1558.210 778.712, 1554.656 770.475 C 1534.048 722.713, 1511.920 684.382, 1481.750 644.186 C 1475.838 636.308, 1471 629.320, 1471 628.655 C 1471 627.990, 1474.150 618.021, 1478 606.500 C 1481.850 594.979, 1485 584.832, 1485 583.951 C 1485 579.956, 1445.535 540.042, 1419 517.200 C 1395.594 497.052, 1354.020 466.827, 1335.453 456.461 L 1330.453 453.669 1309.541 464.834 C 1298.039 470.976, 1288.284 476, 1287.862 476 C 1287.441 476, 1279.087 471.994, 1269.298 467.098 C 1223.862 444.372, 1174.083 426.824, 1125.925 416.556 L 1118.349 414.941 1109.520 392.721 C 1104.664 380.499, 1100.585 370.362, 1100.455 370.192 C 1100.017 369.623, 1081.621 367.110, 1066.500 365.553 C 1033.798 362.186, 997.528 361.313, 964.712 363.103 M 962 366.634 C 950.738 367.410, 924.110 370.107, 912.500 371.647 L 900.500 373.239 891.331 395.870 L 882.162 418.500 878.331 419.323 C 825.289 430.716, 778.833 447.004, 730.852 471.031 L 711.203 480.870 689.887 469.486 L 668.570 458.102 665.035 460.216 C 663.091 461.379, 655.170 466.487, 647.434 471.567 C 602.575 501.026, 556.967 540.611, 520.705 581.561 L 517.109 585.622 524.663 608.648 L 532.217 631.674 521.321 646.120 C 493.563 682.919, 468.291 726.450, 449.984 769 C 446.552 776.975, 443.364 783.982, 442.899 784.571 C 442.434 785.159, 431.520 787.828, 418.647 790.501 L 395.241 795.362 390.122 811.431 C 377.024 852.552, 368.847 890.969, 364.040 933.962 C 361.873 953.349, 360 981.340, 360 994.348 L 360 1002.772 380.750 1015.723 L 401.500 1028.673 402.184 1039.587 C 405.373 1090.504, 414.697 1141.695, 428.769 1185.551 L 432.636 1197.602 417.818 1216.431 C 409.668 1226.787, 403 1235.676, 403 1236.186 C 403 1241.650, 433.112 1304.800, 447.018 1328.500 C 461.308 1352.853, 484.401 1386.569, 498.101 1403.079 L 501.901 1407.659 525.810 1404.241 L 549.720 1400.824 555.105 1406.662 C 591.736 1446.374, 628.351 1477.806, 670 1505.293 C 677.975 1510.556, 685.335 1515.466, 686.356 1516.204 C 688.028 1517.413, 688.300 1519.912, 689.103 1541.470 C 689.593 1554.628, 690.332 1565.720, 690.747 1566.118 C 692.238 1567.553, 720.774 1582.028, 733.500 1587.805 C 774.044 1606.208, 818.426 1621.202, 859.646 1630.423 L 875.494 1633.968 878.080 1631.234 C 879.502 1629.730, 886.850 1621.638, 894.408 1613.250 C 901.966 1604.862, 908.712 1598, 909.401 1598 C 910.089 1598, 915.343 1598.657, 921.076 1599.460 C 944.610 1602.757, 968.698 1604.266, 998.500 1604.310 C 1029.523 1604.356, 1048.409 1603.270, 1074.932 1599.915 C 1083.419 1598.842, 1090.676 1598.309, 1091.057 1598.732 C 1091.439 1599.154, 1098.160 1606.700, 1105.993 1615.500 C 1113.826 1624.300, 1120.813 1632.115, 1121.519 1632.866 C 1122.602 1634.018, 1124.425 1633.889, 1133.152 1632.042 C 1185.680 1620.924, 1238.242 1602.467, 1286.661 1578.135 C 1296.472 1573.205, 1305.355 1568.527, 1306.399 1567.740 C 1308.110 1566.451, 1308.377 1564.235, 1309.088 1545.404 C 1309.522 1533.907, 1309.905 1523.122, 1309.939 1521.437 C 1309.995 1518.637, 1310.988 1517.752, 1321.522 1511.115 C 1359.762 1487.023, 1397.079 1456.313, 1432.115 1420.103 L 1450.543 1401.059 1474.021 1404.451 L 1497.500 1407.843 1500.830 1404.172 C 1506.110 1398.351, 1519.924 1379.737, 1530.284 1364.485 C 1554.248 1329.203, 1576 1288.795, 1592.100 1249.651 C 1596.172 1239.751, 1596.771 1237.518, 1595.737 1236.082 C 1595.057 1235.137, 1588.317 1226.464, 1580.760 1216.810 L 1567.020 1199.256 1569.034 1193.401 C 1570.142 1190.181, 1573.065 1180.503, 1575.530 1171.894 C 1588.092 1128.027, 1595.401 1084.312, 1597.996 1037.525 C 1598.575 1027.089, 1599.376 1018.274, 1599.775 1017.935 C 1600.174 1017.597, 1609.445 1011.787, 1620.378 1005.025 L 1640.256 992.730 1639.581 978.115 C 1637.583 934.828, 1631.545 892.655, 1621.597 852.500 C 1616.800 833.139, 1607.370 800.993, 1606.115 799.724 C 1605.693 799.297, 1594.841 796.721, 1581.999 794 C 1560.848 789.518, 1557.064 788.259, 1557.015 785.690 C 1556.982 783.918, 1545.313 757.541, 1537.465 741.500 C 1521.564 708.994, 1500.931 675.440, 1479.093 646.572 C 1472.882 638.362, 1467.583 631.077, 1467.317 630.383 C 1467.051 629.690, 1470.021 619.475, 1473.916 607.683 C 1477.812 595.892, 1481 585.558, 1481 584.720 C 1481 582.828, 1459.079 559.074, 1444.417 545.079 C 1420.918 522.648, 1397.628 503.288, 1371.960 484.848 C 1358.375 475.088, 1334.737 459.604, 1331.565 458.387 C 1330.779 458.085, 1320.797 462.825, 1309.382 468.919 C 1297.968 475.014, 1288.197 480, 1287.670 480 C 1287.142 480, 1282.163 477.567, 1276.605 474.593 C 1238.577 454.245, 1188.344 435.409, 1142.737 424.398 C 1129.957 421.312, 1118.595 418.443, 1117.488 418.023 C 1116.004 417.460, 1113.161 411.459, 1106.642 395.130 C 1101.783 382.958, 1097.704 373, 1097.578 373 C 1097.452 373, 1092.522 372.323, 1086.623 371.495 C 1059.619 367.704, 1045.183 366.810, 1006.500 366.534 C 985.050 366.380, 965.025 366.425, 962 366.634 M 465.822 429.321 C 456.127 433.414, 445.328 443.559, 440.877 452.755 C 435.813 463.215, 438.038 475.453, 446.287 482.514 C 451.562 487.029, 455.772 488.300, 463.841 487.815 C 470.847 487.393, 472.292 486.802, 492.259 476.188 C 497.626 473.334, 502.949 471, 504.086 471 C 505.223 471, 507.524 472.371, 509.200 474.046 C 511.957 476.803, 512.201 477.558, 511.774 482.004 C 510.540 494.846, 495.954 503.545, 484.750 498.121 C 482.340 496.954, 480.089 496, 479.747 496 C 479.405 496, 476.569 499.013, 473.445 502.696 L 467.765 509.391 470.132 511.341 C 475.469 515.737, 483.203 518.414, 490.500 518.393 C 496.428 518.375, 498.495 517.864, 504 515.057 C 512.489 510.727, 523.671 499.488, 527.508 491.431 C 534.474 476.798, 528.270 460.430, 513.235 453.780 C 503.915 449.657, 495.925 451.805, 473.500 464.460 C 464.639 469.461, 459.479 470.291, 456.655 467.171 C 454.340 464.613, 454.590 461.375, 457.485 456.435 C 462.763 447.429, 471.791 443.772, 479.239 447.624 L 482.379 449.247 488.592 442.374 C 495.625 434.593, 495.606 434.354, 487.625 430.310 C 480.380 426.639, 472.969 426.303, 465.822 429.321 M 1515.676 451.822 L 1509.882 457.677 1515.488 459.822 C 1518.571 461.002, 1524.023 462.507, 1527.605 463.167 L 1534.117 464.367 1511.548 486.952 L 1488.979 509.537 1495.302 515.804 L 1501.624 522.070 1534.062 490.116 L 1566.500 458.163 1561.400 452.993 C 1556.332 447.856, 1556.275 447.830, 1552.400 448.906 C 1544.992 450.963, 1531.576 449.890, 1522.985 446.555 C 1522 446.172, 1519.445 448.013, 1515.676 451.822 M 963 449.046 C 844.268 457.542, 735.625 501.422, 644.035 577.872 C 629.080 590.355, 599.724 619.114, 585.723 635 C 515.633 714.521, 469.025 814.553, 454.082 917.530 C 449.496 949.135, 448.632 962.111, 448.621 999.500 C 448.610 1038.170, 449.642 1052.986, 454.576 1085 C 479.667 1247.797, 575.889 1389.819, 719 1475.282 C 802.167 1524.949, 900.719 1551.947, 999 1551.988 C 1130.811 1552.044, 1253.092 1507.578, 1355.965 1422.181 C 1371.206 1409.530, 1409.960 1370.699, 1422.959 1355.055 C 1507.514 1253.297, 1552.091 1130.461, 1551.985 999.517 C 1551.877 867.131, 1505.161 740.855, 1419.166 640.500 C 1407.749 627.177, 1381.142 600.158, 1367.500 588.036 C 1279.148 509.528, 1171.980 462.506, 1053.945 450.460 C 1035.630 448.591, 981.191 447.744, 963 449.046 M 988.500 523.033 C 960.465 527.233, 935.682 546.405, 925.408 571.842 C 920.984 582.793, 919.633 589.858, 919.640 602 C 919.647 615.951, 921.479 623.974, 927.515 636.500 C 937.658 657.548, 956.493 672.976, 979.500 679.081 C 990.588 682.023, 1008.424 682.073, 1019.144 679.191 C 1047.139 671.665, 1069.197 649.120, 1076.567 620.500 C 1079.408 609.468, 1078.989 591.948, 1075.615 580.693 C 1068.811 557.989, 1054.772 540.982, 1034.307 530.647 C 1021.799 524.330, 1001.911 521.025, 988.500 523.033 M 671.668 714.665 C 671.301 715.033, 671 742.258, 671 775.167 L 671 835 999.008 835 L 1327.016 835 1326.758 774.750 L 1326.500 714.500 999.418 714.248 C 819.523 714.110, 672.036 714.298, 671.668 714.665 M 673 909.436 L 673 942.872 711.250 943.205 L 749.500 943.538 757.535 946.621 C 767.536 950.458, 772.897 953.810, 780.260 960.831 C 787.683 967.909, 792.401 975.091, 796.340 985.305 L 799.500 993.500 799.782 1078.588 L 800.064 1163.676 841.365 1164.336 C 864.080 1164.700, 886.116 1165.289, 890.333 1165.645 L 898 1166.293 898 1021.147 L 898 876 785.500 876 L 673 876 673 909.436 M 938.462 877.250 C 938.200 877.938, 938.102 944.811, 938.243 1025.859 L 938.500 1173.218 954.500 1179.459 C 963.300 1182.892, 976.890 1188.320, 984.699 1191.520 L 998.899 1197.340 1020.948 1188.678 C 1033.075 1183.913, 1046.597 1178.775, 1050.998 1177.258 L 1058.999 1174.500 1059 1025.250 L 1059 876 998.969 876 C 951.864 876, 938.835 876.269, 938.462 877.250 M 1100 1021.151 L 1100 1166.302 1109.750 1165.657 C 1115.112 1165.302, 1137.150 1164.711, 1158.723 1164.344 L 1197.946 1163.676 1198.227 1078.588 L 1198.507 993.500 1201.170 986.321 C 1204.797 976.542, 1208.331 970.788, 1215.259 963.382 C 1222.634 955.498, 1229.849 950.687, 1240.305 946.679 L 1248.500 943.538 1286.750 943.205 L 1325 942.872 1325 909.436 L 1325 876 1212.500 876 L 1100 876 1100 1021.151 M 251.112 977.450 L 245.724 988.798 238.447 989.880 C 234.445 990.475, 228.657 991.258, 225.585 991.619 C 222.513 991.980, 220 992.542, 220 992.869 C 220 993.195, 224.080 997.559, 229.066 1002.566 L 238.132 1011.670 235.941 1023.877 C 234.736 1030.590, 234.004 1036.337, 234.314 1036.647 C 234.624 1036.957, 239.889 1034.577, 246.014 1031.358 L 257.150 1025.505 268.596 1031.398 C 274.892 1034.639, 280.207 1037.113, 280.408 1036.896 C 280.609 1036.678, 279.851 1030.957, 278.724 1024.182 L 276.674 1011.865 286.026 1002.474 C 292.306 996.168, 294.906 992.928, 293.939 992.613 C 293.148 992.355, 287.225 991.380, 280.779 990.447 L 269.057 988.749 263.588 977.374 C 260.580 971.119, 257.754 966.023, 257.309 966.051 C 256.864 966.080, 254.075 971.209, 251.112 977.450 M 1736.666 977.372 L 1731.261 988.743 1719.380 990.455 C 1712.846 991.397, 1706.852 992.373, 1706.061 992.625 C 1705.099 992.930, 1707.727 996.200, 1713.974 1002.474 L 1723.326 1011.865 1721.276 1024.182 C 1720.149 1030.957, 1719.407 1036.694, 1719.628 1036.932 C 1719.849 1037.169, 1725.179 1034.694, 1731.472 1031.432 L 1742.914 1025.500 1754.018 1031.355 C 1760.126 1034.575, 1765.368 1036.965, 1765.668 1036.665 C 1765.968 1036.366, 1765.274 1030.581, 1764.128 1023.810 L 1762.043 1011.500 1771.021 1002.481 C 1775.960 997.521, 1780 993.195, 1780 992.869 C 1780 992.542, 1777.487 991.980, 1774.415 991.619 C 1771.343 991.258, 1765.553 990.475, 1761.548 989.880 L 1754.267 988.797 1748.996 977.398 C 1746.097 971.129, 1743.353 966, 1742.898 966 C 1742.444 966, 1739.639 971.117, 1736.666 977.372 M 764 1223.307 L 764 1237.864 771.750 1239.682 C 778.926 1241.365, 784.684 1241.477, 849.500 1241.188 C 928.253 1240.836, 937.609 1241.282, 949.746 1245.962 C 958.266 1249.248, 970.017 1256.757, 976.538 1263.083 C 978.759 1265.237, 980.901 1267, 981.299 1267 C 981.697 1267, 980.157 1263.287, 977.876 1258.750 C 966.880 1236.869, 951.951 1221.645, 935.015 1215.041 L 928.500 1212.500 857 1212.427 C 789.132 1212.358, 780.303 1212.061, 767.250 1209.410 L 764 1208.750 764 1223.307 M 1229.915 1209.418 C 1229.685 1209.648, 1225.672 1210.402, 1220.998 1211.092 C 1214.837 1212.003, 1192.837 1212.369, 1141 1212.424 L 1069.500 1212.500 1062.985 1215.041 C 1046.158 1221.603, 1031.120 1236.887, 1020.148 1258.580 C 1017.949 1262.927, 1016.351 1266.684, 1016.596 1266.929 C 1016.841 1267.175, 1018.945 1265.528, 1021.271 1263.270 C 1027.965 1256.773, 1039.640 1249.284, 1048.254 1245.962 C 1060.391 1241.282, 1069.747 1240.836, 1148.500 1241.188 C 1213.316 1241.477, 1219.074 1241.365, 1226.250 1239.682 L 1234 1237.864 1234 1223.432 C 1234 1210.104, 1233.860 1209, 1232.167 1209 C 1231.158 1209, 1230.145 1209.188, 1229.915 1209.418 M 752.230 1284.179 L 752.500 1305.500 762.500 1307.309 C 774.473 1309.475, 787.310 1309.678, 871.500 1309.032 C 918.168 1308.675, 932.833 1308.859, 937.500 1309.863 C 950.277 1312.612, 968.669 1323.620, 983.250 1337.246 C 986.413 1340.202, 989 1342.267, 989 1341.836 C 989 1340.205, 982.843 1325.646, 978.393 1316.753 C 968.397 1296.779, 954.296 1279.309, 942.840 1272.707 C 932.685 1266.854, 933.315 1266.893, 853 1267.118 C 787.701 1267.301, 778.049 1267.128, 766.500 1265.565 C 759.350 1264.598, 753.153 1263.593, 752.730 1263.332 C 752.306 1263.071, 752.081 1272.452, 752.230 1284.179 M 1245 1263.323 C 1244.725 1263.593, 1238.650 1264.604, 1231.500 1265.569 C 1219.963 1267.127, 1210.229 1267.301, 1145 1267.118 C 1064.685 1266.893, 1065.315 1266.854, 1055.160 1272.707 C 1043.704 1279.309, 1029.603 1296.779, 1019.607 1316.753 C 1015.157 1325.646, 1009 1340.205, 1009 1341.836 C 1009 1342.267, 1011.587 1340.203, 1014.750 1337.249 C 1029.509 1323.463, 1047.582 1312.643, 1060.500 1309.862 C 1065.163 1308.857, 1079.867 1308.667, 1126.500 1309.007 C 1220.771 1309.693, 1220.193 1309.701, 1233.328 1307.627 C 1239.833 1306.600, 1245.355 1305.239, 1245.599 1304.603 C 1246.208 1303.015, 1245.623 1262.709, 1245 1263.323 M 729.654 1333.679 C 729.294 1334.039, 729 1340.067, 729 1347.075 L 729 1359.818 719.500 1363.578 L 710 1367.338 710 1374.669 C 710 1378.701, 710.214 1382, 710.476 1382 C 710.738 1382, 759.225 1390.979, 818.226 1401.953 L 925.500 1421.906 945 1432.082 L 964.500 1442.258 964.515 1449.481 C 964.527 1455.751, 964.926 1457.346, 967.536 1461.567 C 978.200 1478.816, 1006.133 1482.849, 1021.836 1469.408 C 1028.183 1463.976, 1031.296 1457.920, 1031.949 1449.735 L 1032.500 1442.823 1052.978 1432.213 L 1073.455 1421.603 1166.478 1404.361 C 1217.640 1394.878, 1265.912 1385.921, 1273.750 1384.456 L 1288 1381.794 1288 1374.566 L 1288 1367.338 1278.500 1363.578 L 1269 1359.818 1269 1346.968 C 1269 1339.900, 1268.662 1333.934, 1268.250 1333.710 C 1267.838 1333.485, 1252.200 1334.540, 1233.500 1336.053 C 1172.587 1340.982, 1165.219 1341.322, 1114.500 1341.553 C 1058.756 1341.806, 1060.208 1341.638, 1049.406 1349.060 C 1034.542 1359.273, 1017.522 1381.399, 1005 1406.786 C 1001.975 1412.919, 999.211 1417.952, 998.859 1417.969 C 998.506 1417.986, 997.454 1416.088, 996.520 1413.750 C 995.587 1411.412, 992.312 1405, 989.243 1399.500 C 972.260 1369.068, 954.942 1350.002, 938.594 1343.737 C 933.819 1341.908, 930.341 1341.770, 883 1341.539 C 855.225 1341.403, 825.300 1340.764, 816.500 1340.118 C 783.618 1337.703, 737.377 1334.014, 733.904 1333.528 C 731.926 1333.252, 730.014 1333.320, 729.654 1333.679 M 577.142 1605.265 C 564.294 1625.744, 553.719 1642.929, 553.642 1643.453 C 553.423 1644.926, 586.749 1665.579, 593.475 1668.139 C 612.729 1675.465, 632.037 1664.747, 644.629 1639.744 C 653.657 1621.816, 652.340 1605.121, 641.033 1594.148 C 637.398 1590.621, 602.823 1567.975, 601.133 1568.015 C 600.785 1568.023, 589.989 1584.785, 577.142 1605.265 M 1386.251 1577.122 C 1380.361 1579.385, 1340.571 1604.004, 1340.558 1605.392 C 1340.546 1606.701, 1387.368 1680.899, 1388.240 1680.954 C 1388.808 1680.989, 1402.306 1672.781, 1403.801 1671.491 C 1403.966 1671.349, 1399.772 1664.387, 1394.480 1656.021 C 1389.189 1647.654, 1385.080 1640.235, 1385.349 1639.533 C 1386.113 1637.541, 1394.258 1634, 1398.066 1634.003 C 1400.145 1634.006, 1408.728 1637.139, 1419.821 1641.946 L 1438.142 1649.884 1447.067 1644.192 C 1451.976 1641.061, 1455.994 1638.239, 1455.996 1637.921 C 1456.001 1637.168, 1429.823 1624.529, 1424.124 1622.533 C 1421.718 1621.690, 1418.492 1621, 1416.956 1621 C 1411.233 1621, 1410.702 1620.104, 1414.118 1616.213 C 1420.562 1608.874, 1421.845 1599.504, 1417.642 1590.479 C 1411.477 1577.240, 1399.359 1572.084, 1386.251 1577.122 M 593.050 1615.745 L 577.680 1640.250 580.090 1642.071 C 590.996 1650.312, 601.109 1654.193, 607.500 1652.589 C 616.490 1650.333, 631.915 1627.360, 631.976 1616.136 C 632.020 1608.118, 627.910 1603.406, 612.460 1593.762 L 608.419 1591.240 593.050 1615.745 M 1388.960 1593.943 C 1387.563 1594.368, 1381.573 1597.757, 1375.649 1601.476 C 1368.361 1606.051, 1365.051 1608.690, 1365.413 1609.635 C 1365.708 1610.403, 1368.239 1614.601, 1371.037 1618.963 L 1376.125 1626.895 1385.193 1621.198 C 1397.696 1613.342, 1402 1609.200, 1402 1605.023 C 1402 1600.564, 1398.619 1595.411, 1394.824 1594.088 C 1393.107 1593.490, 1391.656 1593.039, 1391.601 1593.086 C 1391.545 1593.133, 1390.357 1593.519, 1388.960 1593.943 M 683.500 1666.503 C 674.150 1688.761, 666.389 1707.540, 666.254 1708.236 C 666.100 1709.027, 677.509 1714.305, 696.754 1722.345 C 713.664 1729.410, 727.939 1735.191, 728.475 1735.191 C 729.843 1735.191, 735.327 1721.905, 734.323 1721.024 C 733.870 1720.628, 723.557 1716.136, 711.404 1711.043 L 689.307 1701.782 693.819 1690.979 C 697.937 1681.119, 698.513 1680.248, 700.415 1681.004 C 701.562 1681.460, 710.573 1685.261, 720.440 1689.451 C 730.307 1693.641, 738.873 1696.879, 739.477 1696.647 C 740.080 1696.416, 741.766 1693.222, 743.223 1689.550 L 745.872 1682.874 741.186 1680.864 C 738.609 1679.759, 729.413 1675.893, 720.750 1672.274 C 712.087 1668.654, 705 1665.387, 705 1665.013 C 705 1662.645, 712.158 1648.552, 713.225 1648.819 C 713.926 1648.995, 723.500 1652.934, 734.500 1657.572 C 745.500 1662.210, 755.012 1666.004, 755.637 1666.003 C 757.247 1665.999, 762.555 1653.153, 761.415 1652.021 C 760.656 1651.267, 701.649 1625.962, 700.779 1626.018 C 700.626 1626.028, 692.850 1644.246, 683.500 1666.503 M 1268 1638.862 C 1259.561 1642.557, 1259.498 1642.612, 1259.153 1646.542 C 1258.710 1651.604, 1261.001 1738.335, 1261.594 1738.927 C 1261.839 1739.172, 1265.967 1737.768, 1270.769 1735.809 L 1279.500 1732.245 1279.141 1721.322 L 1278.782 1710.398 1294.856 1703.683 L 1310.931 1696.968 1318.365 1704.721 L 1325.798 1712.475 1329.617 1711.094 C 1331.718 1710.334, 1336.037 1708.540, 1339.214 1707.106 L 1344.992 1704.500 1310.746 1669.821 L 1276.500 1635.141 1268 1638.862 M 1276.478 1664.196 C 1276.728 1666.563, 1277.180 1673.869, 1277.481 1680.431 C 1277.783 1686.994, 1278.192 1692.526, 1278.391 1692.725 C 1278.590 1692.923, 1283.306 1691.206, 1288.870 1688.907 L 1298.988 1684.729 1295.317 1680.614 C 1293.299 1678.351, 1288.132 1672.763, 1283.835 1668.196 L 1276.023 1659.892 1276.478 1664.196 M 799.124 1677.684 C 797.424 1684.733, 792.669 1704.431, 788.557 1721.457 C 784.445 1738.483, 781.248 1752.582, 781.454 1752.787 C 782.506 1753.840, 797.387 1757.003, 798.022 1756.309 C 798.430 1755.864, 801.618 1743.429, 805.107 1728.676 C 808.596 1713.922, 811.662 1702.447, 811.919 1703.176 C 812.177 1703.904, 816.931 1718.201, 822.484 1734.947 L 832.580 1765.394 841.514 1767.640 C 846.428 1768.875, 850.572 1769.761, 850.724 1769.610 C 851.294 1769.039, 871.892 1682.558, 871.541 1682.207 C 870.492 1681.159, 855.611 1677.999, 854.978 1678.691 C 854.570 1679.136, 851.390 1691.537, 847.911 1706.250 C 844.431 1720.963, 841.317 1733, 840.989 1733 C 840.662 1733, 839.363 1729.737, 838.103 1725.750 C 836.842 1721.763, 832.229 1707.439, 827.851 1693.920 L 819.890 1669.340 812.195 1667.534 C 807.963 1666.540, 803.986 1665.534, 803.357 1665.298 C 802.625 1665.023, 801.101 1669.482, 799.124 1677.684 M 1160.500 1672.391 C 1152.979 1674.227, 1144.897 1678.257, 1141.082 1682.072 C 1127.780 1695.374, 1133.458 1717.298, 1151.570 1722.563 C 1154.993 1723.558, 1163.226 1724.470, 1172.438 1724.874 C 1189.382 1725.618, 1192.316 1726.609, 1193.498 1731.991 C 1195.277 1740.088, 1185.971 1747.500, 1174.027 1747.500 C 1166.443 1747.500, 1162.695 1745.361, 1159.113 1738.987 L 1156.957 1735.152 1149.229 1737.706 C 1144.978 1739.111, 1141.073 1740.651, 1140.550 1741.129 C 1139.161 1742.402, 1143.264 1750.247, 1148.018 1755.404 C 1153.970 1761.861, 1160.529 1764.424, 1171 1764.384 C 1188.865 1764.317, 1205.040 1756.308, 1209.838 1745.154 C 1213.026 1737.744, 1213.450 1733.061, 1211.532 1726.462 C 1208.709 1716.751, 1203.721 1711.202, 1195 1708.068 C 1193.075 1707.376, 1183.987 1706.427, 1174.805 1705.959 C 1157.047 1705.054, 1152.738 1703.930, 1151.693 1699.933 C 1150.355 1694.819, 1155.147 1690.245, 1164.233 1687.961 C 1172.260 1685.943, 1175.484 1687.173, 1181.717 1694.633 L 1183.500 1696.767 1191.750 1694.233 C 1197.175 1692.567, 1200 1691.199, 1200 1690.235 C 1200 1689.430, 1198.779 1686.528, 1197.288 1683.787 C 1194.471 1678.612, 1189.088 1674.199, 1183.101 1672.159 C 1178.778 1670.685, 1166.990 1670.806, 1160.500 1672.391 M 915 1689.449 C 915 1689.695, 913.676 1707.808, 912.059 1729.699 C 910.441 1751.589, 908.986 1771.525, 908.826 1774 L 908.535 1778.500 917.429 1779.298 C 923.807 1779.870, 926.523 1779.772, 927.031 1778.949 C 927.421 1778.318, 928.038 1772.559, 928.403 1766.151 C 928.767 1759.743, 929.310 1752.694, 929.611 1750.486 L 930.156 1746.471 941.828 1747.316 C 948.248 1747.781, 955.750 1747.879, 958.500 1747.534 C 968.547 1746.275, 978.465 1738.188, 980.954 1729.225 C 981.523 1727.176, 981.987 1722.350, 981.985 1718.500 C 981.977 1705.996, 975.535 1696.664, 964.746 1693.529 C 957.250 1691.351, 915 1687.885, 915 1689.449 M 1049.796 1690.916 C 1045.559 1691.237, 1041.659 1691.950, 1041.130 1692.500 C 1040.287 1693.375, 1013 1781.445, 1013 1783.290 C 1013 1784.160, 1020.691 1784.200, 1027.630 1783.366 L 1032.760 1782.750 1035.475 1772.504 L 1038.191 1762.259 1045.346 1761.644 C 1049.281 1761.305, 1057.253 1760.737, 1063.061 1760.379 L 1073.623 1759.730 1078.061 1769.448 L 1082.500 1779.166 1092.500 1778.471 C 1098 1778.089, 1102.623 1777.667, 1102.773 1777.532 C 1102.924 1777.397, 1093.474 1757.659, 1081.773 1733.670 C 1067.151 1703.690, 1060.031 1690.097, 1059 1690.193 C 1058.175 1690.269, 1054.033 1690.594, 1049.796 1690.916 M 932.626 1711.143 C 930.784 1729.239, 930.799 1729.713, 933.235 1730.366 C 934.481 1730.700, 939.775 1730.977, 945 1730.983 C 952.618 1730.991, 955.123 1730.612, 957.647 1729.074 C 964.224 1725.063, 964.338 1714.001, 957.842 1710.050 C 954.764 1708.178, 951.960 1707.615, 939.835 1706.434 L 933.171 1705.785 932.626 1711.143 M 1050.585 1719.094 C 1046.870 1731.954, 1043.165 1745.496, 1043.326 1745.628 C 1043.573 1745.832, 1065.388 1743.947, 1065.623 1743.702 C 1065.730 1743.591, 1062.741 1736.792, 1058.982 1728.594 L 1052.146 1713.688 1050.585 1719.094" stroke="none" fill="#456ca1" fill-rule="evenodd"/>
</svg>